# xmcd CD database file
#
# Track frame offsets:
#	150
#	26212
#	46382
#	74105
#	103712
#	122790
#	142812
#	162027
#	175482
#	200982
#	217577
#
# Disc length: 3108 seconds
#
# Revision: 3
# Processed by: cddbd v1.5.2PL0 Copyright (c) Steve Scherf et al.
# Submitted via: CDex 1.51
#
DISCID=a50c220b
DTITLE=SADAO WATANABE - Wheel of Life
DYEAR=2003
DGENRE=Jazz
TTITLE0=One For You
TTITLE1=Tembea
TTITLE2=Basie's At Night
TTITLE3=Requiem For Love
TTITLE4=Wind and Trees
TTITLE5=Koulamanite
TTITLE6=Waiting Song
TTITLE7=Isabelle
TTITLE8=Jindungo
TTITLE9=Wheel of Life
TTITLE10=Spring - All Beautiful Days
EXTD=YEAR: 2003
EXTT0=
EXTT1=
EXTT2=
EXTT3=
EXTT4=
EXTT5=
EXTT6=
EXTT7=
EXTT8=
EXTT9=
EXTT10=
PLAYORDER=
